<svg version="1.1" id="Layer_1" xmlns="http://www.w3.org/2000/svg" xmlns:xlink="http://www.w3.org/1999/xlink" x="0px" y="0px"
	 width="100%" viewBox="0 0 483 156" xml:space="preserve">
<path fill="#4E4E4D" opacity="1.000000" stroke="none" 
	d="
M483.000000,157.000000 
	C323.975922,157.000000 164.951843,157.000000 5.463340,156.531342 
	C4.958690,136.738678 4.918468,117.414673 5.203212,98.042892 
	C5.649225,97.031433 5.770273,96.067741 5.934809,94.679581 
	C5.996294,92.840439 6.014292,91.425774 6.407044,90.050285 
	C9.822912,90.724937 12.864025,91.360420 16.050470,92.319527 
	C18.023369,93.899361 19.686729,95.623627 21.706427,96.332161 
	C31.368902,99.721901 41.127941,102.836380 50.646706,106.328300 
	C47.499889,107.655983 44.559025,108.704056 41.236206,109.779053 
	C34.477051,111.659882 28.137243,113.658859 21.709135,115.315140 
	C17.628153,116.366653 15.985819,118.773201 16.044064,122.833878 
	C16.139515,129.488708 16.183655,136.147812 16.049280,142.801071 
	C15.971063,146.673752 17.437883,147.394470 20.937052,146.186066 
	C30.940010,142.731689 41.013512,139.481598 51.440674,136.135803 
	C54.881161,135.079620 57.940243,134.038818 61.384132,133.002655 
	C64.843582,131.978424 67.918221,130.949539 71.368286,129.924042 
	C75.178215,128.654236 78.612724,127.381073 82.445839,126.084427 
	C87.608223,124.414978 92.371994,122.769005 97.480469,120.914711 
	C98.199043,119.489853 98.889244,118.275009 98.895798,117.056488 
	C98.940605,108.727699 98.841866,100.398140 99.218811,92.048462 
	C101.623085,92.017403 103.597954,92.006691 105.673828,92.455315 
	C105.858162,102.608803 105.941490,112.302963 105.962448,122.462425 
	C105.900070,128.837616 105.900070,134.747513 105.900070,140.647705 
	C125.570107,140.647705 144.438095,140.647705 163.447815,140.647705 
	C163.447815,134.196777 163.447815,128.092392 163.568542,121.571060 
	C164.270294,118.027100 163.223450,116.734039 159.804993,116.786858 
	C149.921112,116.939568 140.032318,116.776291 130.099731,116.289337 
	C130.030457,112.233284 129.850281,108.615067 130.077072,105.022545 
	C130.146790,103.918427 131.329514,102.884575 132.466919,101.884529 
	C141.506073,101.950516 150.080887,101.950516 159.333176,101.950516 
	C159.333176,97.552368 159.333176,93.773369 159.769501,89.994904 
	C163.832138,89.999275 167.458481,90.003113 171.153595,90.471313 
	C171.360901,100.272636 171.499420,109.609604 171.488937,119.347198 
	C171.447830,121.145470 171.555725,122.543121 171.509399,124.386475 
	C171.355164,130.090820 171.355164,135.349457 171.355164,140.673874 
	C179.826141,140.673874 187.709763,140.673874 195.858582,140.673874 
	C195.858582,134.546921 195.858582,128.762787 195.907990,122.564552 
	C195.915665,120.764183 195.873947,119.377930 195.890747,117.566444 
	C195.906143,115.427834 195.863037,113.714439 195.921478,111.594055 
	C201.156296,108.643593 204.273224,109.446083 207.007538,114.368469 
	C208.950607,118.336044 210.865204,121.942955 212.768509,125.910294 
	C214.647736,130.520554 216.460953,134.807938 218.492294,138.989395 
	C218.911804,139.852921 220.133911,140.871979 221.002396,140.887146 
	C229.224716,141.030777 237.450577,140.972687 246.630600,140.972687 
	C243.139008,133.948532 240.127396,127.889969 237.060959,121.485237 
	C235.981796,119.100647 234.957443,117.062218 233.888641,114.677582 
	C231.488541,110.961853 228.704132,107.737541 230.360703,102.989227 
	C233.716309,99.218468 236.756973,95.574333 240.279266,91.952194 
	C245.567520,91.561508 250.374130,91.148819 255.411011,90.961662 
	C256.095825,92.124229 256.550385,93.061264 257.010132,94.383743 
	C260.043030,103.505730 263.070831,112.242279 266.097137,121.356979 
	C267.912140,127.080612 269.538116,132.503983 271.670746,137.720215 
	C272.248077,139.132355 274.304413,140.748642 275.774170,140.843658 
	C281.408508,141.207825 287.086914,141.134949 292.733093,140.878143 
	C293.959656,140.822342 295.787903,139.576202 296.200195,138.458298 
	C298.320068,132.710083 300.068451,126.824883 302.135193,120.671043 
	C305.283508,111.265701 308.243225,102.176834 311.408630,92.923157 
	C311.912140,92.126534 312.209961,91.494713 313.015747,90.901733 
	C319.871918,90.958626 326.220062,90.976662 332.670898,91.453796 
	C332.857452,101.940948 332.941376,111.968994 332.962799,122.462341 
	C332.900299,128.837540 332.900299,134.747421 332.900299,140.647583 
	C352.570129,140.647583 371.438080,140.647583 390.447754,140.647583 
	C390.447754,134.196579 390.447754,128.092163 390.568665,121.570862 
	C391.273376,118.020882 390.217072,116.736511 386.800568,116.786789 
	C376.910736,116.932312 367.016266,116.760468 357.085815,116.265244 
	C357.048035,111.377762 357.048035,106.938225 357.048035,101.929062 
	C366.885101,101.929062 376.261414,101.929062 385.903687,101.929062 
	C385.903687,97.900734 385.903687,94.450203 386.006348,90.744751 
	C386.187408,90.324249 386.265839,90.158676 386.776611,89.994217 
	C390.500702,89.999062 393.792511,90.002785 397.153168,90.470886 
	C397.362518,100.272697 397.502991,109.610123 397.493652,119.347458 
	C397.453186,121.143135 397.562531,122.538918 397.514069,124.379715 
	C397.356262,130.084808 397.356262,135.344894 397.356262,140.675583 
	C405.822662,140.675583 413.707794,140.675583 421.858032,140.675583 
	C421.858032,134.548477 421.858032,128.762482 421.906799,122.562401 
	C421.913422,120.761909 421.871277,119.375504 421.887634,117.551071 
	C421.989258,114.756500 422.032379,112.399948 422.039185,110.023079 
	C422.002899,110.002754 422.043091,110.075645 422.486572,110.044357 
	C428.866455,108.752869 432.471039,111.083115 434.087189,116.941208 
	C434.593872,118.777748 435.814301,120.417381 436.807251,122.498230 
	C439.275787,127.951660 441.562073,133.095535 444.077057,138.125015 
	C444.652710,139.276123 445.994995,140.819351 447.020721,140.847244 
	C455.216125,141.070038 463.420288,140.971619 472.615143,140.971619 
	C468.841431,133.328308 465.503235,126.567131 461.961426,119.505173 
	C459.655945,114.255432 457.554077,109.306450 455.887817,105.383118 
	C459.875732,99.515358 463.446869,94.260834 467.442993,89.004044 
	C471.048126,88.383804 474.228271,87.765823 477.643463,87.102165 
	C477.440918,88.517601 477.155426,90.512802 476.773956,92.855934 
	C475.930145,94.619637 475.182343,96.035423 474.096405,98.091354 
	C477.565704,98.091354 480.345123,98.091354 483.070648,98.551430 
	C483.011169,118.341003 483.005585,137.670502 483.000000,157.000000 
M256.817078,141.703735 
	C256.206055,143.282303 255.595016,144.860870 254.858170,146.764435 
	C257.953583,146.764435 260.664185,146.764435 263.559448,146.764435 
	C262.994598,144.872467 262.418121,142.941544 261.691467,140.303101 
	C260.124542,136.486389 258.557587,132.669693 256.996307,128.069443 
	C253.906067,118.529861 250.815842,108.990280 247.671143,99.282555 
	C245.632004,102.063187 243.820053,104.534012 241.876740,107.183968 
	C245.575623,114.493729 249.287888,121.829933 253.053146,129.885315 
	C254.422394,133.593094 255.791656,137.300888 256.817078,141.703735 
M70.357025,141.304672 
	C65.262680,143.041107 60.168343,144.777527 53.992477,146.882599 
	C60.487648,146.882599 65.777931,146.882599 71.977089,146.968567 
	C75.647842,146.928238 79.318604,146.887909 83.913910,146.958267 
	C88.132019,146.958267 92.350121,146.958267 96.548477,146.958267 
	C95.771088,142.364395 95.096840,138.380035 94.303749,133.693405 
	C90.451782,135.124619 86.710823,136.514572 82.170700,137.984909 
	C78.471123,139.025345 74.771538,140.065765 70.357025,141.304672 
M306.337524,141.199402 
	C305.735413,143.076111 305.133301,144.952835 304.586914,146.655731 
	C311.184875,146.655731 317.494965,146.655731 324.198578,146.655731 
	C323.291626,144.485062 322.565369,142.746872 321.955353,140.091354 
	C321.916992,136.391052 321.878601,132.690750 321.978668,128.063492 
	C321.978668,118.231262 321.978668,108.399033 321.978668,98.566803 
	C321.506866,98.470184 321.035095,98.373558 320.563293,98.276932 
	C317.378693,108.469017 314.194061,118.661095 310.401886,129.293839 
	C309.267975,133.140472 308.134064,136.987091 306.337524,141.199402 
z"/>
<path fill="#FFFFFF" opacity="0.000000" stroke="none" 
	d="
M80.000000,1.000000 
	C214.544617,1.000000 349.089233,1.000000 484.000000,1.000000 
	C484.000000,27.019749 484.000000,53.041218 483.672729,79.530502 
	C482.912445,80.039330 482.479462,80.080345 481.647034,80.041122 
	C480.506561,79.386002 479.080566,78.749130 479.126160,78.245430 
	C479.964294,68.982468 478.177826,60.259220 474.056213,51.596039 
	C472.015381,48.458576 470.027466,45.677521 467.911224,42.587498 
	C460.833435,34.620972 452.129974,29.658077 441.943054,29.171005 
	C422.742767,28.252968 403.494354,28.102045 384.265594,28.087778 
	C366.377319,28.074505 348.489563,28.796680 330.599731,28.909948 
	C322.193268,28.963171 313.772125,27.942387 305.376953,28.158663 
	C298.351898,28.339643 293.554840,30.147047 291.406555,37.158611 
	C290.517395,40.060551 289.908142,43.048248 289.088989,46.380394 
	C288.302856,49.493095 287.599335,52.222355 286.562286,55.133446 
	C285.521820,57.824867 284.814819,60.334461 283.946930,63.415222 
	C282.149323,58.042866 280.629028,53.499317 279.059021,48.552422 
	C277.452667,43.188126 275.896027,38.227184 274.198242,32.964973 
	C271.850037,31.440363 269.712860,29.330904 267.423584,29.150417 
	C258.546295,28.450539 249.592453,27.826397 240.725525,28.290335 
	C236.656204,28.503248 232.759048,32.477715 228.716644,32.604511 
	C224.464386,32.737885 220.176819,29.374876 215.826630,29.166039 
	C196.572052,28.241697 177.294678,29.477154 157.991959,28.231287 
	C142.074402,27.203911 126.036659,27.913780 110.054535,28.080210 
	C104.491646,28.138138 98.935799,28.873816 93.068817,29.323563 
	C91.277420,23.642628 89.360931,18.528118 88.089020,13.258048 
	C86.841019,8.087071 85.078552,3.521052 80.000000,1.000000 
z"/>
<path fill="#404040" opacity="1.000000" stroke="none" 
	d="
M79.562500,1.000000 
	C85.078552,3.521052 86.841019,8.087071 88.089020,13.258048 
	C89.360931,18.528118 91.277420,23.642628 93.068817,29.323563 
	C98.935799,28.873816 104.491646,28.138138 110.054535,28.080210 
	C126.036659,27.913780 142.074402,27.203911 157.991959,28.231287 
	C177.294678,29.477154 196.572052,28.241697 215.826630,29.166039 
	C220.176819,29.374876 224.464386,32.737885 228.716644,32.604511 
	C232.759048,32.477715 236.656204,28.503248 240.725525,28.290335 
	C249.592453,27.826397 258.546295,28.450539 267.423584,29.150417 
	C269.712860,29.330904 271.850037,31.440363 274.094482,33.423874 
	C274.338409,40.800549 269.331177,38.579269 265.443298,39.025993 
	C259.180359,39.008926 253.375916,38.890118 247.578583,39.042725 
	C244.378799,39.126953 241.190979,39.666553 237.532333,40.000523 
	C232.351807,40.389824 227.636734,40.779472 222.522186,41.123158 
	C220.516678,40.683441 218.917480,39.980129 217.303497,39.944332 
	C202.881302,39.624474 188.456512,39.422306 173.706360,39.110733 
	C172.611404,39.359127 171.842545,39.682289 170.619934,40.003761 
	C167.726349,40.003349 165.286545,40.004620 162.556931,39.716751 
	C144.189194,39.291992 126.111275,39.131241 108.033173,39.104961 
	C107.241356,39.103809 106.447762,40.334202 105.245148,40.993462 
	C102.895813,40.997467 100.956314,40.998940 98.856888,40.692589 
	C97.431915,40.205803 96.102310,39.689316 94.914932,39.916416 
	C92.242088,40.427647 89.639702,41.307301 86.945213,41.679283 
	C86.549095,40.992619 86.210503,40.370949 85.884575,40.377514 
	C77.507210,40.546200 69.131157,40.780426 60.725777,40.534424 
	C60.696671,32.206978 60.696671,24.348373 60.696671,16.185112 
	C58.396492,16.955750 56.422127,17.617229 54.571602,18.237219 
	C54.571602,23.446800 54.571602,28.247902 54.571602,33.695477 
	C51.373077,29.046726 48.586441,24.996616 45.780388,20.918283 
	C43.295071,21.727625 41.205521,22.408087 39.115299,23.088766 
	C43.688339,29.274660 47.986744,35.089058 51.864216,40.967049 
	C48.319141,41.353046 45.195000,41.675449 41.857002,41.694504 
	C40.274353,37.331638 38.592354,33.345535 37.619061,29.193312 
	C36.497982,24.410648 34.268314,24.268024 30.635666,26.717642 
	C32.121212,31.881727 33.575539,36.937279 34.557457,41.995064 
	C30.530384,42.063114 26.975714,42.128929 23.255993,41.882660 
	C21.802330,37.707062 20.513721,33.843540 19.103569,29.615604 
	C17.025211,30.267809 15.371614,30.786720 13.452630,31.388912 
	C15.829409,39.130737 18.095707,46.512695 19.916296,53.923660 
	C16.036318,52.966225 12.602047,51.979786 9.002125,50.647644 
	C7.115141,44.954971 5.281128,39.640980 3.703682,34.251888 
	C2.076594,28.693213 5.831528,22.767277 11.260499,20.950493 
	C16.665144,19.141851 22.301588,19.234234 27.802477,16.510843 
	C37.024521,11.945169 47.364643,9.642653 57.224583,6.358715 
	C62.493507,4.603854 67.742188,2.788213 73.000000,1.000000 
	C75.041664,1.000000 77.083336,1.000000 79.562500,1.000000 
M66.732063,25.836756 
	C68.203880,30.298985 69.675697,34.761211 71.188690,39.348278 
	C76.055115,37.696133 80.223320,36.281036 84.661537,34.774269 
	C83.843987,32.612743 83.240387,31.016869 82.657509,29.475794 
	C75.276375,31.463636 75.276375,31.463636 74.337814,28.179897 
	C76.273216,27.389378 78.222473,26.593197 80.480110,25.671061 
	C79.868050,23.926048 79.346840,22.440048 78.945724,21.296457 
	C76.256920,20.121557 72.447540,24.984812 70.969963,19.361742 
	C73.768250,18.279793 76.012558,17.412041 78.471672,16.461231 
	C77.788216,14.534617 77.244781,13.002748 76.596397,11.175017 
	C72.213898,12.577682 68.025330,13.918273 63.490017,15.369845 
	C64.528328,18.816418 65.473709,21.954496 66.732063,25.836756 
z"/>
<path fill="#FFFFFF" opacity="0.000000" stroke="none" 
	d="
M72.531342,1.000000 
	C67.742188,2.788213 62.493507,4.603854 57.224583,6.358715 
	C47.364643,9.642653 37.024521,11.945169 27.802477,16.510843 
	C22.301588,19.234234 16.665144,19.141851 11.260499,20.950493 
	C5.831528,22.767277 2.076594,28.693213 3.703682,34.251888 
	C5.281128,39.640980 7.115141,44.954971 8.929363,51.011253 
	C9.363616,53.630104 10.677268,56.471554 9.886798,57.296268 
	C5.149981,62.238327 5.863621,68.107864 6.092410,74.415390 
	C6.004023,76.524925 5.989344,78.217560 5.562574,79.958572 
	C3.766989,80.004639 2.383495,80.002327 1.000000,80.000000 
	C1.000000,53.743179 1.000000,27.486359 1.000000,1.000000 
	C24.687067,1.000000 48.374874,1.000000 72.531342,1.000000 
z"/>
<path fill="#FFFFFF" opacity="0.000000" stroke="none" 
	d="
M4.878247,98.090668 
	C4.918468,117.414673 4.958690,136.738678 4.999456,156.531342 
	C3.675996,157.000000 2.351992,157.000000 1.000000,157.000000 
	C1.000000,137.645782 1.000000,118.291550 1.388287,98.468658 
	C2.810464,98.030228 3.844356,98.060448 4.878247,98.090668 
z"/>
<path fill="#010101" opacity="1.000000" stroke="none" 
	d="
M482.046478,80.121361 
	C482.479462,80.080345 482.912445,80.039330 483.672729,79.999161 
	C484.000000,85.688042 484.000000,91.376083 483.780670,97.550507 
	C483.561340,98.036896 483.124542,98.091354 483.124542,98.091354 
	C480.345123,98.091354 477.565704,98.091354 474.096405,98.091354 
	C475.182343,96.035423 475.930145,94.619637 477.122742,92.862823 
	C479.060486,88.388306 480.553467,84.254829 482.046478,80.121361 
z"/>
<path fill="#FFFFFF" opacity="0.000000" stroke="none" 
	d="
M483.070648,98.551430 
	C483.124542,98.091354 483.561340,98.036896 483.780670,98.018448 
	C484.000000,117.666664 484.000000,137.333328 483.500000,157.000000 
	C483.005585,137.670502 483.011169,118.341003 483.070648,98.551430 
z"/>
<path fill="#313131" opacity="1.000000" stroke="none" 
	d="
M1.000000,80.416672 
	C2.383495,80.002327 3.766989,80.004639 5.565797,80.418655 
	C5.998170,83.890610 6.015229,86.950867 6.032289,90.011116 
	C6.014292,91.425774 5.996294,92.840439 5.630338,94.494270 
	C4.521413,92.857864 3.795994,90.966789 2.987831,89.111771 
	C2.380269,87.717201 1.666493,86.368896 1.000000,85.000000 
	C1.000000,83.611107 1.000000,82.222221 1.000000,80.416672 
z"/>
<path fill="#000000" opacity="1.000000" stroke="none" 
	d="
M1.000000,85.463181 
	C1.666493,86.368896 2.380269,87.717201 2.987831,89.111771 
	C3.795994,90.966789 4.521413,92.857864 5.586850,94.918747 
	C5.770273,96.067741 5.649225,97.031433 5.203212,98.042892 
	C3.844356,98.060448 2.810464,98.030228 1.388287,98.000000 
	C1.000000,93.975456 1.000000,89.950912 1.000000,85.463181 
z"/>
<path fill="#F79620" opacity="1.000000" stroke="none" 
	d="
M98.789406,92.068825 
	C98.841866,100.398140 98.940605,108.727699 98.895798,117.056488 
	C98.889244,118.275009 98.199043,119.489853 97.138885,120.741943 
	C90.640244,118.863525 84.827881,116.949539 78.669861,114.879990 
	C73.883377,113.478241 69.442543,112.232063 64.770958,110.711884 
	C60.693516,109.293205 56.846832,108.148521 52.817051,106.749954 
	C52.040188,106.346939 51.446423,106.197815 50.852661,106.048691 
	C41.127941,102.836380 31.368902,99.721901 21.706427,96.332161 
	C19.686729,95.623627 18.023369,93.899361 16.122200,91.873367 
	C16.162661,88.408546 16.276724,85.713516 16.784977,83.029053 
	C18.785667,83.358994 20.390593,83.945908 21.998922,83.955391 
	C34.895573,84.031418 47.795776,84.131416 60.686691,83.849274 
	C62.530968,83.808914 64.331268,81.759499 66.542725,80.697350 
	C76.055641,83.554382 85.199875,86.285416 94.279533,89.216507 
	C95.918907,89.745743 97.292892,91.097054 98.789406,92.068825 
z"/>
<path fill="#F38A1C" opacity="1.000000" stroke="none" 
	d="
M386.344269,89.993095 
	C386.265839,90.158676 386.187408,90.324249 385.654602,90.670135 
	C384.796417,90.193771 384.122803,89.572319 384.031769,88.874817 
	C383.339355,83.570351 380.293213,81.561806 375.114014,81.956131 
	C371.983459,82.194473 368.788300,81.713768 365.677704,82.057922 
	C358.588470,82.842278 354.054535,80.492752 351.785461,73.265091 
	C350.044067,67.718285 344.707977,70.151360 340.983917,70.316658 
	C339.584686,70.378761 337.927795,73.526505 337.108307,75.557930 
	C336.033630,78.222099 335.671204,81.173607 334.673523,84.000877 
	C333.906158,83.999649 333.467743,83.999069 332.963654,83.533691 
	C332.802826,74.377434 332.707703,65.685982 332.707825,56.534973 
	C332.803131,50.502384 332.803131,44.929348 332.803131,39.335747 
	C352.175995,39.335747 370.686829,39.335747 389.900330,39.335747 
	C389.900330,45.115917 389.900330,50.562492 389.828735,56.444756 
	C389.757172,58.806366 389.757172,60.732285 389.757172,63.229294 
	C378.441101,63.229294 367.901459,63.229294 357.271606,63.229294 
	C357.271606,68.710747 357.271606,73.609993 357.271606,79.081070 
	C366.914490,79.081070 376.284668,79.081070 385.850647,79.081070 
	C386.032166,83.094116 386.188232,86.543602 386.344269,89.993095 
z"/>
<path fill="#F79720" opacity="1.000000" stroke="none" 
	d="
M206.979065,114.007820 
	C204.273224,109.446083 201.156296,108.643593 195.581619,111.672264 
	C194.093567,114.770531 193.046951,117.383591 191.548584,119.998062 
	C186.731644,120.330750 182.366440,120.662018 177.945099,120.640289 
	C176.595001,118.303520 174.361649,116.399429 174.185364,114.320862 
	C173.680923,108.372993 173.632278,102.321136 174.152832,96.375702 
	C174.475143,92.694412 175.585510,88.249817 180.467072,88.140869 
	C185.012970,88.039421 189.572723,89.174263 194.145294,89.494354 
	C199.686325,89.882240 205.264709,90.363297 210.794662,90.107269 
	C216.376663,89.848831 221.903244,88.509361 227.487350,88.119766 
	C229.522919,87.977745 233.247940,88.903465 233.432022,89.869774 
	C233.913895,92.399208 233.050034,95.266502 232.368851,97.907883 
	C231.900787,99.722862 230.841049,101.385246 230.045776,103.115837 
	C228.704132,107.737541 231.488541,110.961853 233.624741,114.910278 
	C232.559692,118.915100 230.408264,120.185921 226.878983,120.055824 
	C219.835876,119.796196 212.225204,121.668701 207.456436,114.082550 
	C207.400162,113.992996 207.142639,114.029930 206.979065,114.007820 
z"/>
<path fill="#F59620" opacity="1.000000" stroke="none" 
	d="
M266.098602,120.978828 
	C263.070831,112.242279 260.043030,103.505730 257.335480,94.207153 
	C258.079712,92.967789 258.560333,92.318901 258.917450,91.607964 
	C260.168518,89.117371 260.943756,84.887863 262.689026,84.447594 
	C266.721466,83.430328 271.459015,82.778976 274.832001,87.204231 
	C276.526276,89.427055 278.979492,91.071434 281.337036,93.237648 
	C282.251007,95.569885 282.917389,97.641876 283.943878,100.833458 
	C285.246948,97.406937 286.088531,95.194008 287.280823,92.953491 
	C290.335541,90.128960 293.013062,87.305801 295.750031,84.541481 
	C299.420227,80.834564 306.937256,82.801003 308.447510,87.693726 
	C309.034119,89.594238 310.265320,91.295784 311.202911,93.087959 
	C308.243225,102.176834 305.283508,111.265701 301.716614,120.686104 
	C289.439148,121.004700 277.768860,120.991768 266.098602,120.978828 
z"/>
<path fill="#F6951F" opacity="1.000000" stroke="none" 
	d="
M335.002441,84.001526 
	C335.671204,81.173607 336.033630,78.222099 337.108307,75.557930 
	C337.927795,73.526505 339.584686,70.378761 340.983917,70.316658 
	C344.707977,70.151360 350.044067,67.718285 351.785461,73.265091 
	C354.054535,80.492752 358.588470,82.842278 365.677704,82.057922 
	C368.788300,81.713768 371.983459,82.194473 375.114014,81.956131 
	C380.293213,81.561806 383.339355,83.570351 384.031769,88.874817 
	C384.122803,89.572319 384.796417,90.193771 385.551941,90.925064 
	C385.903687,94.450203 385.903687,97.900734 385.903687,101.929062 
	C376.261414,101.929062 366.885101,101.929062 357.048035,101.929062 
	C357.048035,106.938225 357.048035,111.377762 357.000427,116.664955 
	C355.134094,118.341454 353.372589,119.675331 351.484283,119.889030 
	C348.052795,120.277367 344.539001,119.861107 341.072235,120.034554 
	C336.549164,120.260864 334.878357,118.201187 334.949402,113.789886 
	C335.109253,103.862724 335.001373,93.931244 335.002441,84.001526 
z"/>
<path fill="#F4901E" opacity="1.000000" stroke="none" 
	d="
M230.360703,102.989227 
	C230.841049,101.385246 231.900787,99.722862 232.368851,97.907883 
	C233.050034,95.266502 233.913895,92.399208 233.432022,89.869774 
	C233.247940,88.903465 229.522919,87.977745 227.487350,88.119766 
	C221.903244,88.509361 216.376663,89.848831 210.794662,90.107269 
	C205.264709,90.363297 199.686325,89.882240 194.145294,89.494354 
	C189.572723,89.174263 185.012970,88.039421 180.467072,88.140869 
	C175.585510,88.249817 174.475143,92.694412 174.152832,96.375702 
	C173.632278,102.321136 173.680923,108.372993 174.185364,114.320862 
	C174.361649,116.399429 176.595001,118.303520 177.584137,120.638550 
	C175.398865,120.308723 173.518402,119.627647 171.637939,118.946571 
	C171.499420,109.609604 171.360901,100.272636 171.217682,90.008072 
	C171.375793,84.729691 171.538620,80.378899 172.038544,75.985802 
	C173.572769,72.171158 174.543808,68.304291 176.064453,64.667206 
	C176.801422,62.904518 178.391632,60.506584 179.904465,60.255157 
	C183.712875,59.622219 187.696854,60.045689 191.590347,60.045689 
	C192.466904,66.725143 193.176743,72.614479 194.074799,78.474968 
	C194.214249,79.384956 195.214005,80.163101 195.881638,81.443314 
	C196.095596,83.284836 196.243835,84.685272 196.381302,85.984055 
	C212.638809,87.102562 214.745514,86.204353 218.490204,76.903496 
	C218.872070,71.438278 218.872070,66.071564 218.872070,60.650578 
	C234.261002,58.859276 236.452042,58.991917 240.162766,73.662193 
	C240.558853,75.228065 241.881912,76.559464 242.826477,78.401581 
	C241.851196,83.179092 240.824432,87.554642 239.797668,91.930191 
	C236.756973,95.574333 233.716309,99.218468 230.360703,102.989227 
z"/>
<path fill="#F4921E" opacity="1.000000" stroke="none" 
	d="
M467.018005,89.006310 
	C463.446869,94.260834 459.875732,99.515358 455.887817,105.383118 
	C457.554077,109.306450 459.655945,114.255432 461.703278,119.817535 
	C459.108032,120.954704 456.582886,121.815987 454.023407,121.934303 
	C448.260651,122.200691 442.480865,122.099030 436.708008,122.147148 
	C435.814301,120.417381 434.593872,118.777748 434.087189,116.941208 
	C432.471039,111.083115 428.866455,108.752869 422.530792,109.670494 
	C426.318573,105.751190 431.898315,105.938362 434.140198,111.056412 
	C438.032684,119.942688 445.064941,119.395447 452.427155,118.964218 
	C455.623535,118.776993 457.705566,117.346474 456.033051,113.815384 
	C453.141479,107.710518 453.332672,102.416466 457.863556,96.807205 
	C461.209778,92.664604 458.921661,89.174110 453.561554,89.018196 
	C450.569427,88.931152 447.416138,88.400436 444.605743,89.122093 
	C434.397064,91.743462 424.616333,91.532944 414.388550,88.317375 
	C406.313354,85.778580 401.673431,88.986725 401.154388,95.753799 
	C400.672272,102.039444 400.813538,108.402184 401.180420,114.701851 
	C401.265778,116.167015 403.216339,118.494568 404.590332,118.721756 
	C407.980225,119.282257 411.621002,119.294762 414.982330,118.627609 
	C416.536835,118.319069 417.744385,115.965935 418.980103,114.435493 
	C420.102905,113.044930 421.050629,111.513008 422.075500,110.043404 
	C422.032379,112.399948 421.989258,114.756500 421.531189,117.605347 
	C417.950195,119.064796 414.787811,120.801750 411.617096,120.817093 
	C406.962341,120.839615 402.301636,119.631401 397.643463,118.947556 
	C397.502991,109.610123 397.362518,100.272697 397.217468,90.019653 
	C397.374756,86.410522 397.536682,83.717010 398.031799,80.983795 
	C399.198059,78.968864 400.158112,77.036438 400.840698,75.010513 
	C403.085297,68.348434 403.040955,68.455429 413.459839,68.949623 
	C418.479858,69.187729 418.191681,72.935005 419.094177,76.183517 
	C419.745300,78.527184 420.891052,80.733437 421.883118,83.419975 
	C422.625824,84.887901 423.547577,86.933281 423.940521,86.836296 
	C429.843353,85.379349 436.639282,87.841248 442.107849,82.900803 
	C444.134918,79.953323 446.528473,77.196335 447.290649,74.044792 
	C448.477448,69.137833 449.922089,66.878357 455.802277,67.778297 
	C463.046692,68.887047 465.551117,70.623413 466.031982,78.116264 
	C466.209229,80.878403 466.786499,83.614876 467.151978,86.693939 
	C467.087769,87.685318 467.052887,88.345810 467.018005,89.006310 
z"/>
<path fill="#DB871E" opacity="1.000000" stroke="none" 
	d="
M390.447754,121.987747 
	C390.447754,128.092163 390.447754,134.196579 390.447754,140.647583 
	C371.438080,140.647583 352.570129,140.647583 332.900299,140.647583 
	C332.900299,134.747421 332.900299,128.837540 333.361816,122.514252 
	C352.369751,125.279892 370.932739,122.591537 389.488831,122.247009 
	C389.809967,122.241051 390.128174,122.077675 390.447754,121.987747 
z"/>
<path fill="#DB871E" opacity="1.000000" stroke="none" 
	d="
M163.447815,121.987991 
	C163.447815,128.092392 163.447815,134.196777 163.447815,140.647705 
	C144.438095,140.647705 125.570107,140.647705 105.900070,140.647705 
	C105.900070,134.747513 105.900070,128.837616 106.361595,122.514343 
	C125.369141,125.447639 143.932892,122.508415 162.488876,122.247040 
	C162.809677,122.242523 163.128220,122.077904 163.447815,121.987991 
z"/>
<path fill="#F58D1D" opacity="1.000000" stroke="none" 
	d="
M281.089478,92.977402 
	C278.979492,91.071434 276.526276,89.427055 274.832001,87.204231 
	C271.459015,82.778976 266.721466,83.430328 262.689026,84.447594 
	C260.943756,84.887863 260.168518,89.117371 258.917450,91.607964 
	C258.560333,92.318901 258.079712,92.967789 257.330322,93.821716 
	C256.550385,93.061264 256.095825,92.124229 255.364929,90.594482 
	C253.036591,84.002289 250.984589,78.002815 248.951141,71.674049 
	C248.923904,70.907478 248.878128,70.470184 249.118164,69.823715 
	C248.086777,63.036728 246.638947,56.480606 245.541153,49.866386 
	C245.255096,48.142826 245.426483,45.629086 246.482452,44.530449 
	C249.698349,41.184559 261.220184,42.689030 263.388580,46.914574 
	C266.388550,52.760654 268.520782,59.046768 271.206848,65.063057 
	C271.851776,66.507553 273.215027,67.631348 274.416870,68.928986 
	C274.585815,68.955338 274.919342,69.030945 274.917511,69.427444 
	C276.973633,77.541756 279.031555,85.259575 281.089478,92.977402 
z"/>
<path fill="#F58D1D" opacity="1.000000" stroke="none" 
	d="
M311.408630,92.923157 
	C310.265320,91.295784 309.034119,89.594238 308.447510,87.693726 
	C306.937256,82.801003 299.420227,80.834564 295.750031,84.541481 
	C293.013062,87.305801 290.335541,90.128960 287.287415,92.556488 
	C288.955505,84.458183 290.967682,76.729294 293.130859,68.756561 
	C293.558472,68.010307 293.835083,67.507889 294.452637,66.941803 
	C296.516327,63.032345 298.731384,59.325859 299.866699,55.313824 
	C302.898529,44.599377 304.675476,42.979145 315.400513,42.998409 
	C316.395416,43.000195 317.395630,42.939487 318.384277,43.019947 
	C321.877075,43.304203 323.498199,45.031361 322.646240,48.645794 
	C321.625885,52.974548 320.516052,57.288303 319.705505,61.656895 
	C319.446320,63.053699 320.016479,64.604370 320.160461,66.469521 
	C317.578430,74.857231 315.043091,82.860054 312.507751,90.862885 
	C312.209961,91.494713 311.912140,92.126534 311.408630,92.923157 
z"/>
<path fill="#F79720" opacity="1.000000" stroke="none" 
	d="
M132.002594,101.818542 
	C131.329514,102.884575 130.146790,103.918427 130.077072,105.022545 
	C129.850281,108.615067 130.030457,112.233284 129.921646,116.648170 
	C127.954811,118.303078 126.184547,119.635857 124.271233,119.889481 
	C121.177803,120.299545 117.990234,120.014252 114.842560,119.997131 
	C109.308762,119.967026 108.087044,118.858086 108.021347,113.372963 
	C107.936020,106.250099 108.001152,99.125420 108.374321,91.957970 
	C122.697578,85.736679 137.359009,88.019661 151.801193,88.634384 
	C155.557098,88.794250 156.036011,93.048058 155.859009,96.187569 
	C155.665344,99.622627 152.887131,100.069389 149.982361,100.020660 
	C145.327850,99.942566 140.664749,99.865417 136.019165,100.083580 
	C134.656158,100.147583 133.340149,101.212418 132.002594,101.818542 
z"/>
<path fill="#F59723" opacity="1.000000" stroke="none" 
	d="
M51.059273,136.151169 
	C41.013512,139.481598 30.940010,142.731689 20.937052,146.186066 
	C17.437883,147.394470 15.971063,146.673752 16.049280,142.801071 
	C16.183655,136.147812 16.139515,129.488708 16.044064,122.833878 
	C15.985819,118.773201 17.628153,116.366653 21.709135,115.315140 
	C28.137243,113.658859 34.477051,111.659882 41.567245,110.015289 
	C43.152321,112.848923 44.010006,115.478142 44.899391,118.096588 
	C46.944485,124.117569 49.005009,130.133301 51.059273,136.151169 
z"/>
<path fill="#F5901E" opacity="1.000000" stroke="none" 
	d="
M132.466919,101.884537 
	C133.340149,101.212418 134.656158,100.147583 136.019165,100.083580 
	C140.664749,99.865417 145.327850,99.942566 149.982361,100.020660 
	C152.887131,100.069389 155.665344,99.622627 155.859009,96.187569 
	C156.036011,93.048058 155.557098,88.794250 151.801193,88.634384 
	C137.359009,88.019661 122.697578,85.736679 108.373566,91.507812 
	C108.000114,88.400810 108.000214,85.700401 108.000168,82.546486 
	C108.333916,78.147652 108.699791,74.204720 108.995300,70.256523 
	C109.695580,60.900455 110.730843,60.152687 120.075859,59.906124 
	C124.659508,59.785183 125.973930,61.282818 126.222549,65.859177 
	C126.427238,69.626961 128.549271,73.290573 129.927353,77.418076 
	C131.663788,78.230186 133.289688,78.940659 134.925919,78.965309 
	C142.830887,79.084381 150.738663,79.018959 158.838120,79.018959 
	C159.022263,83.101479 159.177719,86.547928 159.333176,89.994370 
	C159.333176,93.773369 159.333176,97.552368 159.333176,101.950516 
	C150.080887,101.950516 141.506073,101.950516 132.466919,101.884537 
z"/>
<path fill="#484747" opacity="1.000000" stroke="none" 
	d="
M397.698578,81.023491 
	C397.536682,83.717010 397.374756,86.410522 397.148560,89.555283 
	C393.792511,90.002785 390.500702,89.999062 386.776611,89.994217 
	C386.188232,86.543602 386.032166,83.094116 385.850647,79.081070 
	C376.284668,79.081070 366.914490,79.081070 357.271606,79.081070 
	C357.271606,73.609993 357.271606,68.710747 357.271606,63.229294 
	C367.901459,63.229294 378.441101,63.229294 389.757172,63.229294 
	C389.757172,60.732285 389.757172,58.806366 390.279663,56.441689 
	C392.893372,56.003948 394.984650,56.004959 397.140442,56.437210 
	C397.365845,58.596256 397.526733,60.324066 397.546692,62.493793 
	C397.503357,68.964966 397.600983,74.994232 397.698578,81.023491 
z"/>
<path fill="#484747" opacity="1.000000" stroke="none" 
	d="
M159.769501,89.994904 
	C159.177719,86.547928 159.022263,83.101479 158.838120,79.018959 
	C150.738663,79.018959 142.830887,79.084381 134.925919,78.965309 
	C133.289688,78.940659 131.663788,78.230186 129.993805,76.956352 
	C129.954483,71.854523 129.954483,67.632141 129.954483,63.070053 
	C140.050934,63.070053 149.306473,63.159027 158.556747,62.977852 
	C160.008896,62.949409 161.437042,61.695271 163.334229,61.005108 
	C166.226654,61.003654 168.661163,61.004963 171.166840,61.468040 
	C171.392471,66.629250 171.546951,71.328682 171.701447,76.028114 
	C171.538620,80.378899 171.375793,84.729691 171.148895,89.543716 
	C167.458481,90.003113 163.832138,89.999275 159.769501,89.994904 
z"/>
<path fill="#4A4948" opacity="1.000000" stroke="none" 
	d="
M99.218811,92.048462 
	C97.292892,91.097054 95.918907,89.745743 94.279533,89.216507 
	C85.199875,86.285416 76.055641,83.554382 66.370712,80.456841 
	C66.803299,79.435509 67.697304,78.400902 68.810219,78.038391 
	C77.166924,75.316429 85.614700,72.865486 93.917618,69.993355 
	C95.861633,69.320877 97.360771,67.362366 99.477539,65.996895 
	C101.794418,65.996048 103.698341,65.993843 105.703842,66.448776 
	C105.881950,72.270203 105.958488,77.634491 105.965889,83.445114 
	C105.788773,86.592964 105.680801,89.294472 105.572830,91.995987 
	C103.597954,92.006691 101.623085,92.017403 99.218811,92.048462 
z"/>
<path fill="#DC881E" opacity="1.000000" stroke="none" 
	d="
M266.097137,121.356979 
	C277.768860,120.991768 289.439148,121.004700 301.527985,121.002579 
	C300.068451,126.824883 298.320068,132.710083 296.200195,138.458298 
	C295.787903,139.576202 293.959656,140.822342 292.733093,140.878143 
	C287.086914,141.134949 281.408508,141.207825 275.774170,140.843658 
	C274.304413,140.748642 272.248077,139.132355 271.670746,137.720215 
	C269.538116,132.503983 267.912140,127.080612 266.097137,121.356979 
z"/>
<path fill="#DB871E" opacity="1.000000" stroke="none" 
	d="
M436.807251,122.498230 
	C442.480865,122.099030 448.260651,122.200691 454.023407,121.934303 
	C456.582886,121.815987 459.108032,120.954704 461.906891,120.118301 
	C465.503235,126.567131 468.841431,133.328308 472.615143,140.971619 
	C463.420288,140.971619 455.216125,141.070038 447.020721,140.847244 
	C445.994995,140.819351 444.652710,139.276123 444.077057,138.125015 
	C441.562073,133.095535 439.275787,127.951660 436.807251,122.498230 
z"/>
<path fill="#494847" opacity="1.000000" stroke="none" 
	d="
M313.015747,90.901733 
	C315.043091,82.860054 317.578430,74.857231 320.399170,66.217728 
	C321.619202,63.012741 322.553894,60.444424 323.919678,57.904289 
	C327.104706,57.619827 329.858612,57.307175 332.612549,56.994522 
	C332.707703,65.685982 332.802826,74.377434 332.893433,83.967865 
	C332.781982,86.909447 332.675110,88.952072 332.568237,90.994698 
	C326.220062,90.976662 319.871918,90.958626 313.015747,90.901733 
z"/>
<path fill="#DA871D" opacity="1.000000" stroke="none" 
	d="
M237.115784,121.831406 
	C240.127396,127.889969 243.139008,133.948532 246.630600,140.972687 
	C237.450577,140.972687 229.224716,141.030777 221.002396,140.887146 
	C220.133911,140.871979 218.911804,139.852921 218.492294,138.989395 
	C216.460953,134.807938 214.647736,130.520554 212.984344,125.539017 
	C214.588638,124.744667 215.974426,124.551300 217.341522,124.641441 
	C224.136673,125.089447 230.983902,126.016411 237.115784,121.831406 
z"/>
<path fill="#D18220" opacity="1.000000" stroke="none" 
	d="
M421.858032,122.976494 
	C421.858032,128.762482 421.858032,134.548477 421.858032,140.675583 
	C413.707794,140.675583 405.822662,140.675583 397.356262,140.675583 
	C397.356262,135.344894 397.356262,130.084808 397.921997,124.401413 
	C406.277832,123.644226 414.067932,123.310364 421.858032,122.976494 
z"/>
<path fill="#D28220" opacity="1.000000" stroke="none" 
	d="
M195.858582,122.978653 
	C195.858582,128.762787 195.858582,134.546921 195.858582,140.673874 
	C187.709763,140.673874 179.826141,140.673874 171.355164,140.673874 
	C171.355164,135.349457 171.355164,130.090820 171.891113,124.404800 
	C180.237564,123.644493 188.048080,123.311569 195.858582,122.978653 
z"/>
<path fill="#464646" opacity="1.000000" stroke="none" 
	d="
M467.442993,89.004044 
	C467.052887,88.345810 467.087769,87.685318 467.398987,86.364502 
	C467.739777,79.138054 467.804199,72.571930 467.904114,65.627640 
	C467.283722,62.858398 466.627899,60.467323 466.189880,57.774609 
	C468.973663,55.631214 473.337433,56.297428 474.109070,51.952454 
	C478.177826,60.259220 479.964294,68.982468 479.126160,78.245430 
	C479.080566,78.749130 480.506561,79.386002 481.647034,80.041122 
	C480.553467,84.254829 479.060486,88.388306 477.218719,92.514893 
	C477.155426,90.512802 477.440918,88.517601 477.643463,87.102165 
	C474.228271,87.765823 471.048126,88.383804 467.442993,89.004044 
z"/>
<path fill="#EC901E" opacity="1.000000" stroke="none" 
	d="
M105.673828,92.455322 
	C105.680801,89.294472 105.788773,86.592964 106.293335,83.445511 
	C107.126709,82.999725 107.563507,82.999863 108.000305,83.000000 
	C108.000214,85.700401 108.000114,88.400810 108.000778,91.551369 
	C108.001152,99.125420 107.936020,106.250099 108.021347,113.372963 
	C108.087044,118.858086 109.308762,119.967026 114.842560,119.997131 
	C117.990234,120.014252 121.177803,120.299545 124.271233,119.889481 
	C126.184547,119.635857 127.954811,118.303078 129.967377,117.095901 
	C140.032318,116.776291 149.921112,116.939568 159.804993,116.786858 
	C163.223450,116.734039 164.270294,118.027100 163.568542,121.571060 
	C163.128220,122.077904 162.809677,122.242523 162.488876,122.247040 
	C143.932892,122.508415 125.369141,125.447639 106.423973,122.049034 
	C105.941490,112.302963 105.858162,102.608803 105.673828,92.455322 
z"/>
<path fill="#EC901E" opacity="1.000000" stroke="none" 
	d="
M332.670868,91.453796 
	C332.675110,88.952072 332.781982,86.909447 332.959106,84.432663 
	C333.467743,83.999069 333.906158,83.999649 334.673523,84.000877 
	C335.001373,93.931244 335.109253,103.862724 334.949402,113.789886 
	C334.878357,118.201187 336.549164,120.260864 341.072235,120.034554 
	C344.539001,119.861107 348.052795,120.277367 351.484283,119.889030 
	C353.372589,119.675331 355.134094,118.341454 357.038208,117.112900 
	C367.016266,116.760468 376.910736,116.932312 386.800568,116.786789 
	C390.217072,116.736511 391.273376,118.020882 390.568665,121.570862 
	C390.128174,122.077675 389.809967,122.241051 389.488831,122.247009 
	C370.932739,122.591537 352.369751,125.279892 333.424316,122.048958 
	C332.941376,111.968994 332.857452,101.940948 332.670868,91.453796 
z"/>
<path fill="#ED9121" opacity="1.000000" stroke="none" 
	d="
M51.440678,136.135803 
	C49.005009,130.133301 46.944485,124.117569 44.899391,118.096588 
	C44.010006,115.478142 43.152321,112.848923 41.949203,109.988358 
	C44.559025,108.704056 47.499889,107.655983 50.646706,106.328300 
	C51.446423,106.197815 52.040188,106.346939 52.817009,107.165710 
	C53.381325,109.915352 53.515118,112.079628 54.189484,114.059799 
	C56.351822,120.409187 58.714157,126.690460 60.999325,132.998016 
	C57.940243,134.038818 54.881161,135.079620 51.440678,136.135803 
z"/>
<path fill="#E38C1F" opacity="1.000000" stroke="none" 
	d="
M61.384132,133.002655 
	C58.714157,126.690460 56.351822,120.409187 54.189484,114.059799 
	C53.515118,112.079628 53.381325,109.915352 53.000114,107.419601 
	C56.846832,108.148521 60.693516,109.293205 64.811172,111.089005 
	C67.052383,117.800301 69.022621,123.860481 70.992859,129.920670 
	C67.918221,130.949539 64.843582,131.978424 61.384132,133.002655 
z"/>
<path fill="#4B4A49" opacity="1.000000" stroke="none" 
	d="
M248.932602,72.003326 
	C250.984589,78.002815 253.036591,84.002289 255.134674,90.368942 
	C250.374130,91.148819 245.567520,91.561508 240.279282,91.952194 
	C240.824432,87.554642 241.851196,83.179092 242.903885,77.990326 
	C242.992249,75.785141 243.054703,74.393173 243.492371,73.000229 
	C245.555939,72.667274 247.244263,72.335304 248.932602,72.003326 
z"/>
<path fill="#FFFFFF" opacity="0.000000" stroke="none" 
	d="
M311.009430,128.853180 
	C314.194061,118.661095 317.378693,108.469017 320.563293,98.276932 
	C321.035095,98.373558 321.506866,98.470184 321.978668,98.566803 
	C321.978668,108.399033 321.978668,118.231262 321.464417,128.530319 
	C317.636597,128.949158 314.323029,128.901169 311.009430,128.853180 
z"/>
<path fill="#DA861D" opacity="1.000000" stroke="none" 
	d="
M71.368286,129.924042 
	C69.022621,123.860481 67.052383,117.800301 65.041931,111.362999 
	C69.442543,112.232063 73.883377,113.478241 78.665161,115.272705 
	C80.019829,119.249962 81.033531,122.678940 82.047234,126.107910 
	C78.612724,127.381073 75.178215,128.654236 71.368286,129.924042 
z"/>
<path fill="#FFFFFF" opacity="0.000000" stroke="none" 
	d="
M253.000153,129.166138 
	C249.287888,121.829933 245.575623,114.493729 241.876740,107.183968 
	C243.820053,104.534012 245.632004,102.063187 247.671143,99.282555 
	C250.815842,108.990280 253.906067,118.529861 256.595886,128.523163 
	C255.130386,129.039978 254.065262,129.103058 253.000153,129.166138 
z"/>
<path fill="#484849" opacity="1.000000" stroke="none" 
	d="
M16.390789,83.018486 
	C16.276724,85.713516 16.162661,88.408546 15.976867,91.549744 
	C12.864025,91.360420 9.822912,90.724937 6.407044,90.050285 
	C6.015229,86.950867 5.998170,83.890610 5.977888,80.370270 
	C5.989344,78.217560 6.004023,76.524925 6.494033,74.426750 
	C9.978340,74.347466 12.987316,74.673737 16.057713,75.442314 
	C16.209684,78.262573 16.300236,80.640533 16.390789,83.018486 
z"/>
<path fill="#DB871D" opacity="0.000000" stroke="none" 
	d="
M310.705658,129.073517 
	C314.323029,128.901169 317.636597,128.949158 321.395203,128.993805 
	C321.878601,132.690750 321.916992,136.391052 321.443451,140.547012 
	C316.287750,140.946350 311.643951,140.890030 307.000153,140.833710 
	C308.134064,136.987091 309.267975,133.140472 310.705658,129.073517 
z"/>
<path fill="#E78E1F" opacity="1.000000" stroke="none" 
	d="
M237.060959,121.485237 
	C230.983902,126.016411 224.136673,125.089447 217.341522,124.641441 
	C215.974426,124.551300 214.588638,124.744667 212.995636,125.178596 
	C210.865204,121.942955 208.950607,118.336044 207.007538,114.368469 
	C207.142639,114.029930 207.400162,113.992996 207.456436,114.082550 
	C212.225204,121.668701 219.835876,119.796196 226.878983,120.055824 
	C230.408264,120.185921 232.559692,118.915100 233.669189,115.256500 
	C234.957443,117.062218 235.981796,119.100647 237.060959,121.485237 
z"/>
<path fill="#BE7920" opacity="1.000000" stroke="none" 
	d="
M82.969856,137.904526 
	C86.710823,136.514572 90.451782,135.124619 94.303749,133.693405 
	C95.096840,138.380035 95.771088,142.364395 96.548477,146.958267 
	C92.350121,146.958267 88.132019,146.958267 83.455307,146.464142 
	C82.987762,143.281525 82.978813,140.593018 82.969856,137.904526 
z"/>
<path fill="#CE801C" opacity="1.000000" stroke="none" 
	d="
M82.445839,126.084427 
	C81.033531,122.678940 80.019829,119.249962 79.010818,115.428268 
	C84.827881,116.949539 90.640244,118.863525 96.794189,120.950272 
	C92.371994,122.769005 87.608223,124.414978 82.445839,126.084427 
z"/>
<path fill="#FFFFFF" opacity="0.000000" stroke="none" 
	d="
M306.668823,141.016556 
	C311.643951,140.890030 316.287750,140.946350 321.385315,141.005676 
	C322.565369,142.746872 323.291626,144.485062 324.198578,146.655731 
	C317.494965,146.655731 311.184875,146.655731 304.586914,146.655731 
	C305.133301,144.952835 305.735413,143.076111 306.668823,141.016556 
z"/>
<path fill="#E88E1E" opacity="1.000000" stroke="none" 
	d="
M195.907990,122.564545 
	C188.048080,123.311569 180.237564,123.644493 172.045349,123.959091 
	C171.555725,122.543121 171.447830,121.145470 171.488953,119.347198 
	C173.518402,119.627647 175.398865,120.308723 177.640259,120.991547 
	C182.366440,120.662018 186.731644,120.330750 191.868774,119.956696 
	C193.704544,119.273163 194.768387,118.632416 195.832245,117.991669 
	C195.873947,119.377930 195.915665,120.764183 195.907990,122.564545 
z"/>
<path fill="#C67E23" opacity="1.000000" stroke="none" 
	d="
M82.570282,137.944717 
	C82.978813,140.593018 82.987762,143.281525 82.993034,146.408813 
	C79.318604,146.887909 75.647842,146.928238 71.497864,146.514694 
	C71.036407,144.409271 71.054176,142.757736 71.071953,141.106186 
	C74.771538,140.065765 78.471123,139.025345 82.570282,137.944717 
z"/>
<path fill="#E88F1E" opacity="1.000000" stroke="none" 
	d="
M421.906799,122.562401 
	C414.067932,123.310364 406.277832,123.644226 398.079803,123.956398 
	C397.562531,122.538918 397.453186,121.143135 397.493652,119.347458 
	C402.301636,119.631401 406.962341,120.839615 411.617096,120.817093 
	C414.787811,120.801750 417.950195,119.064796 421.472717,118.043381 
	C421.871277,119.375504 421.913422,120.761909 421.906799,122.562401 
z"/>
<path fill="#DB871D" opacity="0.000000" stroke="none" 
	d="
M253.026642,129.525726 
	C254.065262,129.103058 255.130386,129.039978 256.593079,128.914948 
	C258.557587,132.669693 260.124542,136.486389 261.377075,140.653122 
	C259.762085,141.004974 258.461487,141.006821 257.160919,141.008667 
	C255.791656,137.300888 254.422394,133.593094 253.026642,129.525726 
z"/>
<path fill="#9A6D35" opacity="1.000000" stroke="none" 
	d="
M70.714493,141.205429 
	C71.054176,142.757736 71.036407,144.409271 71.043427,146.471710 
	C65.777931,146.882599 60.487648,146.882599 53.992477,146.882599 
	C60.168343,144.777527 65.262680,143.041107 70.714493,141.205429 
z"/>
<path fill="#FFFFFF" opacity="0.000000" stroke="none" 
	d="
M256.989014,141.356201 
	C258.461487,141.006821 259.762085,141.004974 261.452148,141.006882 
	C262.418121,142.941544 262.994598,144.872467 263.559448,146.764435 
	C260.664185,146.764435 257.953583,146.764435 254.858170,146.764435 
	C255.595016,144.860870 256.206055,143.282303 256.989014,141.356201 
z"/>
<path fill="#F4901E" opacity="1.000000" stroke="none" 
	d="
M195.890747,117.566444 
	C194.768387,118.632416 193.704544,119.273163 192.320511,119.955276 
	C193.046951,117.383591 194.093567,114.770531 195.480057,112.079269 
	C195.863037,113.714439 195.906143,115.427834 195.890747,117.566444 
z"/>
<path fill="#424141" opacity="1.000000" stroke="none" 
	d="
M332.707825,56.534973 
	C329.858612,57.307175 327.104706,57.619827 324.037964,57.528412 
	C325.544006,51.268421 327.362885,45.412495 329.186188,39.542248 
	C328.077515,39.245190 327.762268,39.089058 327.445831,39.086628 
	C322.307678,39.047131 317.169403,39.012627 312.031097,39.005791 
	C302.037476,38.992496 302.037476,38.999947 298.471802,47.998230 
	C295.094543,47.331688 292.133087,46.664318 289.171600,45.996948 
	C289.908142,43.048248 290.517395,40.060551 291.406555,37.158611 
	C293.554840,30.147047 298.351898,28.339643 305.376953,28.158663 
	C313.772125,27.942387 322.193268,28.963171 330.599731,28.909948 
	C348.489563,28.796680 366.377319,28.074505 384.265594,28.087778 
	C403.494354,28.102045 422.742767,28.252968 441.943054,29.171005 
	C452.129974,29.658077 460.833435,34.620972 467.893402,42.987946 
	C466.907684,44.792229 465.991913,46.294090 464.670105,46.880173 
	C462.972382,47.632915 460.948517,47.650105 458.756378,47.842293 
	C452.685852,42.180817 445.718323,39.326370 437.840912,39.099461 
	C428.896179,38.841805 419.938690,39.027191 410.986725,39.022038 
	C406.574371,39.019497 402.161987,39.021595 397.075897,39.021595 
	C397.075897,45.139290 397.075897,50.572632 397.075897,56.005974 
	C394.984650,56.004959 392.893372,56.003948 390.351227,56.006004 
	C389.900330,50.562492 389.900330,45.115917 389.900330,39.335747 
	C370.686829,39.335747 352.175995,39.335747 332.803131,39.335747 
	C332.803131,44.929348 332.803131,50.502384 332.707825,56.534973 
z"/>
<path fill="#454444" opacity="1.000000" stroke="none" 
	d="
M294.111694,67.005478 
	C293.835083,67.507889 293.558472,68.010307 292.664551,68.756531 
	C286.337891,69.010536 280.628632,69.020744 274.919342,69.030945 
	C274.919342,69.030945 274.585815,68.955338 274.380737,68.527809 
	C272.797089,62.733040 271.418579,57.365799 270.447083,51.998981 
	C273.605682,50.984863 276.357208,49.970325 279.108734,48.955780 
	C280.629028,53.499317 282.149323,58.042866 283.946930,63.415222 
	C284.814819,60.334461 285.521820,57.824867 286.863129,55.341515 
	C290.011810,56.612419 292.526123,57.857086 295.054626,59.507072 
	C294.749756,62.276749 294.430725,64.641113 294.111694,67.005478 
z"/>
<path fill="#424242" opacity="1.000000" stroke="none" 
	d="
M279.059021,48.552429 
	C276.357208,49.970325 273.605682,50.984863 270.257874,51.673500 
	C268.409332,47.244247 267.157043,43.140900 265.904724,39.037556 
	C269.331177,38.579269 274.338409,40.800549 274.235657,33.725140 
	C275.896027,38.227184 277.452667,43.188126 279.059021,48.552429 
z"/>
<path fill="#454444" opacity="1.000000" stroke="none" 
	d="
M459.065155,47.984169 
	C460.948517,47.650105 462.972382,47.632915 464.670105,46.880173 
	C465.991913,46.294090 466.907684,44.792229 468.021729,43.296913 
	C470.027466,45.677521 472.015381,48.458576 474.056213,51.596039 
	C473.337433,56.297428 468.973663,55.631214 465.935181,57.546841 
	C463.330170,54.408531 461.197662,51.196346 459.065155,47.984169 
z"/>
<path fill="#454444" opacity="1.000000" stroke="none" 
	d="
M295.040466,59.101757 
	C292.526123,57.857086 290.011810,56.612419 287.196625,55.159679 
	C287.599335,52.222355 288.302856,49.493095 289.088989,46.380394 
	C292.133087,46.664318 295.094543,47.331688 298.479980,48.380089 
	C297.616119,52.207996 296.328278,55.654877 295.040466,59.101757 
z"/>
<path fill="#F58D1D" opacity="1.000000" stroke="none" 
	d="
M16.784977,83.029053 
	C16.300236,80.640533 16.209684,78.262573 16.136089,75.003059 
	C16.326900,64.463127 14.541126,65.532440 24.810768,62.120636 
	C28.574646,60.870190 32.314857,59.548508 36.461823,58.212166 
	C53.574734,52.789017 70.291687,47.413017 87.008644,42.037018 
	C89.639702,41.307301 92.242088,40.427647 94.914932,39.916416 
	C96.102310,39.689316 97.431915,40.205803 98.762337,41.153893 
	C98.906677,49.947186 98.985634,57.971359 99.064590,65.995529 
	C97.360771,67.362366 95.861633,69.320877 93.917618,69.993355 
	C85.614700,72.865486 77.166924,75.316429 68.810219,78.038391 
	C67.697304,78.400902 66.803299,79.435509 65.979919,80.399368 
	C64.331268,81.759499 62.530968,83.808914 60.686691,83.849274 
	C47.795776,84.131416 34.895573,84.031418 21.998922,83.955391 
	C20.390593,83.945908 18.785667,83.358994 16.784977,83.029053 
z"/>
<path fill="#F3891C" opacity="1.000000" stroke="none" 
	d="
M243.117157,73.001213 
	C243.054703,74.393173 242.992249,75.785141 242.852386,77.588364 
	C241.881912,76.559464 240.558853,75.228065 240.162766,73.662193 
	C236.452042,58.991917 234.261002,58.859276 218.872070,60.650578 
	C218.872070,66.071564 218.872070,71.438278 218.439972,76.495605 
	C217.714066,64.419998 210.579025,62.207127 195.815903,64.802444 
	C195.815903,70.142967 195.815903,75.572601 195.815918,81.002228 
	C195.214005,80.163101 194.214249,79.384956 194.074799,78.474968 
	C193.176743,72.614479 192.466904,66.725143 191.590347,60.045689 
	C187.696854,60.045689 183.712875,59.622219 179.904465,60.255157 
	C178.391632,60.506584 176.801422,62.904518 176.064453,64.667206 
	C174.543808,68.304291 173.572769,72.171158 172.038528,75.985802 
	C171.546951,71.328682 171.392471,66.629250 171.232788,61.002769 
	C171.386429,54.081047 171.545303,48.086369 171.969849,42.014244 
	C172.834503,41.019695 173.433487,40.102596 174.032486,39.185493 
	C188.456512,39.422306 202.881302,39.624474 217.303497,39.944332 
	C218.917480,39.980129 220.516678,40.683441 222.745270,41.376213 
	C231.339340,45.145306 236.547699,51.297344 240.229980,59.361374 
	C241.231461,64.157227 242.174301,68.579224 243.117157,73.001213 
z"/>
<path fill="#F3881C" opacity="1.000000" stroke="none" 
	d="
M108.000168,82.546486 
	C107.563507,82.999863 107.126709,82.999725 106.362473,82.999184 
	C105.958488,77.634491 105.881950,72.270203 105.800095,65.989059 
	C105.748184,57.045109 105.701584,49.018017 105.654991,40.990925 
	C106.447762,40.334202 107.241356,39.103809 108.033173,39.104961 
	C126.111275,39.131241 144.189194,39.291992 162.492462,40.181175 
	C162.770630,47.625782 162.823456,54.316826 162.876282,61.007874 
	C161.437042,61.695271 160.008896,62.949409 158.556747,62.977852 
	C149.306473,63.159027 140.050934,63.070053 129.954483,63.070053 
	C129.954483,67.632141 129.954483,71.854523 129.888031,76.538635 
	C128.549271,73.290573 126.427238,69.626961 126.222549,65.859177 
	C125.973930,61.282818 124.659508,59.785183 120.075859,59.906124 
	C110.730843,60.152687 109.695580,60.900455 108.995300,70.256523 
	C108.699791,74.204720 108.333916,78.147652 108.000168,82.546486 
z"/>
<path fill="#424242" opacity="1.000000" stroke="none" 
	d="
M86.945213,41.679287 
	C70.291687,47.413017 53.574734,52.789017 36.376137,57.796577 
	C34.320007,56.952221 32.770542,56.351814 31.165255,56.029133 
	C28.661779,55.525909 26.120434,55.211079 23.880352,54.558643 
	C27.517559,53.199894 30.869553,52.098923 34.406418,50.937229 
	C33.566833,48.661243 32.960995,47.018913 32.309837,45.253719 
	C29.762117,45.900421 27.452545,46.486668 24.838203,47.150280 
	C24.302813,45.278118 23.861929,43.736431 23.421045,42.194744 
	C26.975714,42.128929 30.530384,42.063114 34.813431,42.256691 
	C36.427063,45.081665 37.312313,47.647259 38.237511,50.328621 
	C40.377922,49.547962 41.893951,48.995033 43.588043,48.377159 
	C43.049076,46.110958 42.559967,44.054405 42.070858,41.997852 
	C45.195000,41.675449 48.319141,41.353046 52.153343,41.152573 
	C55.992474,44.878834 57.562607,44.824867 60.754879,41.003265 
	C69.131157,40.780426 77.507210,40.546200 85.884575,40.377514 
	C86.210503,40.370949 86.549095,40.992619 86.945213,41.679287 
z"/>
<path fill="#474645" opacity="1.000000" stroke="none" 
	d="
M23.595137,54.816418 
	C26.120434,55.211079 28.661779,55.525909 31.165255,56.029133 
	C32.770542,56.351814 34.320007,56.952221 35.980179,57.843727 
	C32.314857,59.548508 28.574646,60.870190 24.810768,62.120636 
	C14.541126,65.532440 16.326900,64.463127 16.074669,74.560753 
	C12.987316,74.673737 9.978340,74.347466 6.567740,74.009842 
	C5.863621,68.107864 5.149981,62.238327 9.886798,57.296268 
	C10.677268,56.471554 9.363616,53.630104 9.095015,51.356956 
	C12.602047,51.979786 16.036318,52.966225 20.141560,54.133980 
	C21.740068,54.482338 22.667603,54.649376 23.595137,54.816418 
z"/>
<path fill="#F5F5F5" opacity="1.000000" stroke="none" 
	d="
M60.725777,40.534424 
	C57.562607,44.824867 55.992474,44.878834 52.574280,41.088974 
	C47.986744,35.089058 43.688339,29.274660 39.115299,23.088766 
	C41.205521,22.408087 43.295071,21.727625 45.780388,20.918283 
	C48.586441,24.996616 51.373077,29.046726 54.571602,33.695477 
	C54.571602,28.247902 54.571602,23.446800 54.571602,18.237219 
	C56.422127,17.617229 58.396492,16.955750 60.696671,16.185112 
	C60.696671,24.348373 60.696671,32.206978 60.725777,40.534424 
z"/>
<path fill="#EA841C" opacity="1.000000" stroke="none" 
	d="
M265.443298,39.025993 
	C267.157043,43.140900 268.409332,47.244247 269.850830,51.673077 
	C271.418579,57.365799 272.797089,62.733040 274.211761,68.501457 
	C273.215027,67.631348 271.851776,66.507553 271.206848,65.063057 
	C268.520782,59.046768 266.388550,52.760654 263.388580,46.914574 
	C261.220184,42.689030 249.698349,41.184559 246.482452,44.530449 
	C245.426483,45.629086 245.255096,48.142826 245.541153,49.866386 
	C246.638947,56.480606 248.086777,63.036728 248.865997,69.584641 
	C247.030533,66.010246 245.733017,62.465740 244.346008,58.541176 
	C242.170258,52.107704 240.084015,46.054287 237.997772,40.000870 
	C241.190979,39.666553 244.378799,39.126953 247.578583,39.042725 
	C253.375916,38.890118 259.180359,39.008926 265.443298,39.025993 
z"/>
<path fill="#F8F8F8" opacity="1.000000" stroke="none" 
	d="
M66.575577,25.464666 
	C65.473709,21.954496 64.528328,18.816418 63.490017,15.369845 
	C68.025330,13.918273 72.213898,12.577682 76.596397,11.175017 
	C77.244781,13.002748 77.788216,14.534617 78.471672,16.461231 
	C76.012558,17.412041 73.768250,18.279793 70.969963,19.361742 
	C72.447540,24.984812 76.256920,20.121557 78.945724,21.296457 
	C79.346840,22.440048 79.868050,23.926048 80.480110,25.671061 
	C78.222473,26.593197 76.273216,27.389378 74.337814,28.179897 
	C75.276375,31.463636 75.276375,31.463636 82.657509,29.475794 
	C83.240387,31.016869 83.843987,32.612743 84.661537,34.774269 
	C80.223320,36.281036 76.055115,37.696133 71.188690,39.348278 
	C69.675697,34.761211 68.203880,30.298985 66.575577,25.464666 
z"/>
<path fill="#F6F6F6" opacity="1.000000" stroke="none" 
	d="
M23.880352,54.558640 
	C22.667603,54.649376 21.740068,54.482338 20.587269,54.104973 
	C18.095707,46.512695 15.829409,39.130737 13.452630,31.388912 
	C15.371614,30.786720 17.025211,30.267809 19.103569,29.615604 
	C20.513721,33.843540 21.802330,37.707062 23.255993,41.882660 
	C23.861929,43.736431 24.302813,45.278118 24.838203,47.150280 
	C27.452545,46.486668 29.762117,45.900421 32.309837,45.253719 
	C32.960995,47.018913 33.566833,48.661243 34.406418,50.937229 
	C30.869553,52.098923 27.517559,53.199894 23.880352,54.558640 
z"/>
<path fill="#424242" opacity="1.000000" stroke="none" 
	d="
M105.245148,40.993462 
	C105.701584,49.018017 105.748184,57.045109 105.698524,65.531921 
	C103.698341,65.993843 101.794418,65.996048 99.477539,65.996895 
	C98.985634,57.971359 98.906677,49.947186 98.922272,41.461716 
	C100.956314,40.998940 102.895813,40.997467 105.245148,40.993462 
z"/>
<path fill="#424242" opacity="1.000000" stroke="none" 
	d="
M163.334229,61.005104 
	C162.823456,54.316826 162.770630,47.625782 162.782257,40.470314 
	C165.286545,40.004620 167.726349,40.003349 170.682190,40.365723 
	C171.366867,41.183472 171.535522,41.637581 171.704178,42.091686 
	C171.545303,48.086369 171.386429,54.081047 171.161606,60.541000 
	C168.661163,61.004963 166.226654,61.003654 163.334229,61.005104 
z"/>
<path fill="#424242" opacity="1.000000" stroke="none" 
	d="
M237.532333,40.000526 
	C240.084015,46.054287 242.170258,52.107704 243.913162,58.561680 
	C242.436996,58.970661 241.304169,58.979084 240.171356,58.987511 
	C236.547699,51.297344 231.339340,45.145306 223.144745,41.422176 
	C227.636734,40.779472 232.351807,40.389824 237.532333,40.000526 
z"/>
<path fill="#F8F8F8" opacity="1.000000" stroke="none" 
	d="
M41.857002,41.694504 
	C42.559967,44.054405 43.049076,46.110958 43.588043,48.377159 
	C41.893951,48.995033 40.377922,49.547962 38.237511,50.328621 
	C37.312313,47.647259 36.427063,45.081665 35.285839,42.254452 
	C33.575539,36.937279 32.121212,31.881727 30.635666,26.717642 
	C34.268314,24.268024 36.497982,24.410648 37.619061,29.193312 
	C38.592354,33.345535 40.274353,37.331638 41.857002,41.694504 
z"/>
<path fill="#D28220" opacity="1.000000" stroke="none" 
	d="
M171.969849,42.014244 
	C171.535522,41.637581 171.366867,41.183472 171.135956,40.367409 
	C171.842545,39.682289 172.611404,39.359127 173.706360,39.110733 
	C173.433487,40.102596 172.834503,41.019695 171.969849,42.014244 
z"/>
<path fill="#4B4947" opacity="1.000000" stroke="none" 
	d="
M274.917511,69.427444 
	C280.628632,69.020744 286.337891,69.010536 292.513519,69.000366 
	C290.967682,76.729294 288.955505,84.458183 286.936707,92.584076 
	C286.088531,95.194008 285.246948,97.406937 283.943878,100.833458 
	C282.917389,97.641876 282.251007,95.569885 281.337036,93.237640 
	C279.031555,85.259575 276.973633,77.541756 274.917511,69.427444 
z"/>
<path fill="#494847" opacity="1.000000" stroke="none" 
	d="
M195.881622,81.443314 
	C195.815903,75.572601 195.815903,70.142967 195.815903,64.802444 
	C210.579025,62.207127 217.714066,64.419998 218.058105,76.594101 
	C214.745514,86.204353 212.638809,87.102562 196.381302,85.984055 
	C196.243835,84.685272 196.095596,83.284836 195.881622,81.443314 
z"/>
<path fill="#F58B1C" opacity="1.000000" stroke="none" 
	d="
M467.868591,66.005798 
	C467.804199,72.571930 467.739777,79.138054 467.428345,86.033615 
	C466.786499,83.614876 466.209229,80.878403 466.031982,78.116264 
	C465.551117,70.623413 463.046692,68.887047 455.802277,67.778297 
	C449.922089,66.878357 448.477448,69.137833 447.290649,74.044792 
	C446.528473,77.196335 444.134918,79.953323 442.226013,82.534348 
	C444.787354,77.099701 445.216339,71.827141 441.279572,67.384712 
	C435.916565,61.332821 428.755951,64.737373 421.816193,63.812252 
	C421.816193,70.814621 421.816193,76.907799 421.816193,83.000977 
	C420.891052,80.733437 419.745300,78.527184 419.094177,76.183517 
	C418.191681,72.935005 418.479858,69.187729 413.459839,68.949623 
	C403.040955,68.455429 403.085297,68.348434 400.840698,75.010513 
	C400.158112,77.036438 399.198059,78.968864 398.031799,80.983795 
	C397.600983,74.994232 397.503357,68.964966 397.902740,62.438179 
	C398.932404,60.882710 399.831451,59.855995 399.924805,58.760624 
	C400.150269,56.114826 399.953552,53.436001 400.009827,50.772232 
	C400.133545,44.915558 402.037689,43.021519 407.804291,43.002735 
	C415.465881,42.977776 423.153961,43.391068 430.783722,42.894722 
	C447.123718,41.831760 458.483917,46.627121 465.605286,63.159367 
	C466.068115,64.233788 467.100922,65.062691 467.868591,66.005798 
z"/>
<path fill="#F79720" opacity="1.000000" stroke="none" 
	d="
M422.039215,110.023079 
	C421.050629,111.513008 420.102905,113.044930 418.980103,114.435493 
	C417.744385,115.965935 416.536835,118.319069 414.982330,118.627609 
	C411.621002,119.294762 407.980225,119.282257 404.590332,118.721756 
	C403.216339,118.494568 401.265778,116.167015 401.180420,114.701851 
	C400.813538,108.402184 400.672272,102.039444 401.154388,95.753799 
	C401.673431,88.986725 406.313354,85.778580 414.388550,88.317375 
	C424.616333,91.532944 434.397064,91.743462 444.605743,89.122093 
	C447.416138,88.400436 450.569427,88.931152 453.561554,89.018196 
	C458.921661,89.174110 461.209778,92.664604 457.863556,96.807205 
	C453.332672,102.416466 453.141479,107.710518 456.033051,113.815384 
	C457.705566,117.346474 455.623535,118.776993 452.427155,118.964218 
	C445.064941,119.395447 438.032684,119.942688 434.140198,111.056412 
	C431.898315,105.938362 426.318573,105.751190 422.087280,109.701782 
	C422.043091,110.075645 422.002899,110.002754 422.039215,110.023079 
z"/>
<path fill="#494848" opacity="1.000000" stroke="none" 
	d="
M421.883118,83.419975 
	C421.816193,76.907799 421.816193,70.814621 421.816193,63.812252 
	C428.755951,64.737373 435.916565,61.332821 441.279572,67.384712 
	C445.216339,71.827141 444.787354,77.099701 441.861267,82.547989 
	C436.639282,87.841248 429.843353,85.379349 423.940521,86.836296 
	C423.547577,86.933281 422.625824,84.887901 421.883118,83.419975 
z"/>
<path fill="#4B4744" opacity="1.000000" stroke="none" 
	d="
M240.229980,59.361374 
	C241.304169,58.979084 242.436996,58.970661 244.002655,58.941734 
	C245.733017,62.465740 247.030533,66.010246 248.580200,69.793823 
	C248.878128,70.470184 248.923904,70.907478 248.951141,71.674042 
	C247.244263,72.335304 245.555939,72.667274 243.492371,73.000229 
	C242.174301,68.579224 241.231461,64.157227 240.229980,59.361374 
z"/>
<path fill="#EA841C" opacity="1.000000" stroke="none" 
	d="
M295.054626,59.507072 
	C296.328278,55.654877 297.616119,52.207996 298.895752,48.379261 
	C302.037476,38.999947 302.037476,38.992496 312.031097,39.005791 
	C317.169403,39.012627 322.307678,39.047131 327.445831,39.086628 
	C327.762268,39.089058 328.077515,39.245190 329.186188,39.542248 
	C327.362885,45.412495 325.544006,51.268421 323.606873,57.500225 
	C322.553894,60.444424 321.619202,63.012741 320.445862,65.832855 
	C320.016479,64.604370 319.446320,63.053699 319.705505,61.656895 
	C320.516052,57.288303 321.625885,52.974548 322.646240,48.645794 
	C323.498199,45.031361 321.877075,43.304203 318.384277,43.019947 
	C317.395630,42.939487 316.395416,43.000195 315.400513,42.998409 
	C304.675476,42.979145 302.898529,44.599377 299.866699,55.313824 
	C298.731384,59.325859 296.516327,63.032345 294.452606,66.941811 
	C294.430725,64.641113 294.749756,62.276749 295.054626,59.507072 
z"/>
<path fill="#EB841C" opacity="1.000000" stroke="none" 
	d="
M467.904083,65.627640 
	C467.100922,65.062691 466.068115,64.233788 465.605286,63.159367 
	C458.483917,46.627121 447.123718,41.831760 430.783722,42.894722 
	C423.153961,43.391068 415.465881,42.977776 407.804291,43.002735 
	C402.037689,43.021519 400.133545,44.915558 400.009827,50.772232 
	C399.953552,53.436001 400.150269,56.114826 399.924805,58.760624 
	C399.831451,59.855995 398.932404,60.882710 398.043701,61.996265 
	C397.526733,60.324066 397.365845,58.596256 397.140442,56.437210 
	C397.075897,50.572632 397.075897,45.139290 397.075897,39.021595 
	C402.161987,39.021595 406.574371,39.019497 410.986725,39.022038 
	C419.938690,39.027191 428.896179,38.841805 437.840912,39.099461 
	C445.718323,39.326370 452.685852,42.180817 458.756378,47.842293 
	C461.197662,51.196346 463.330170,54.408531 465.717377,57.848480 
	C466.627899,60.467323 467.283722,62.858398 467.904083,65.627640 
z"/>
</svg>